<svg xmlns:xlink="http://www.w3.org/1999/xlink"   viewBox="0 0 24 24" fill="#343538" xmlns="http://www.w3.org/2000/svg" class="css-ihks7k" width="1"  height="1" ><path fill-rule="evenodd" clip-rule="evenodd" d="M3.5 8.3c0-1.68 0-2.52.327-3.162a3 3 0 011.311-1.311C5.78 3.5 6.62 3.5 8.3 3.5h7.4c1.68 0 2.52 0 3.162.327a3 3 0 011.311 1.311c.327.642.327 1.482.327 3.162v7.4c0 1.68 0 2.52-.327 3.162a3 3 0 01-1.311 1.311c-.642.327-1.482.327-3.162.327H8.3c-1.68 0-2.52 0-3.162-.327a3 3 0 01-1.311-1.311C3.5 18.22 3.5 17.38 3.5 15.7V8.3zm8.5-.8a4.5 4.5 0 100 9 4.5 4.5 0 000-9zm5 1a1.5 1.5 0 100-3 1.5 1.5 0 000 3z" fill="#343538"></path></svg>