<svg xmlns:xlink="http://www.w3.org/1999/xlink" width="24" height="24" viewBox="0 0 40 40" fill="#343538" xmlns="http://www.w3.org/2000/svg" size="24"><path fill-rule="evenodd" clip-rule="evenodd" d="M4 10a2 2 0 012-2h28a2 2 0 012 2v20a2 2 0 01-2 2H6a2 2 0 01-2-2V10z" fill="#F7FCFF"></path><path fill-rule="evenodd" clip-rule="evenodd" d="M4 22.667v2h32v-2H4zM4 26.333v2h32v-2H4zM4 15.333v2h32v-2H4zM4 30a2 2 0 002 2h28a2 2 0 002-2H4zM4 19v2h32v-2H4zM6 8a2 2 0 00-2 2h32a2 2 0 00-2-2H6zM4 11.667v2h32v-2H4z" fill="#E31D1C"></path><path d="M4 10a2 2 0 012-2h18v13H4V10z" fill="#2E42A5"></path><path d="M5.722 10.939l-.726.509.245-.906-.645-.574h.843l.282-.739.331.74h.718l-.564.573.218.906-.702-.51zM9.722 10.939l-.726.509.245-.906-.645-.574h.843l.282-.739.331.74h.718l-.564.573.218.906-.702-.51zM12.996 11.448l.726-.51.702.51-.218-.906.564-.574h-.718l-.331-.739-.283.74h-.842l.645.573-.245.906zM17.722 10.939l-.726.509.245-.906-.645-.574h.843l.282-.739.331.74h.718l-.564.573.218.906-.702-.51zM4.996 15.448l.726-.51.702.51-.218-.906.564-.574h-.718l-.331-.739-.282.74h-.843l.645.573-.245.906zM9.722 14.939l-.726.509.245-.906-.645-.574h.843l.282-.739.331.74h.718l-.564.573.218.906-.702-.51zM12.996 15.448l.726-.51.702.51-.218-.906.564-.574h-.718l-.331-.739-.283.74h-.842l.645.573-.245.906zM17.722 14.939l-.726.509.245-.906-.645-.574h.843l.282-.739.331.74h.718l-.564.573.218.906-.702-.51zM4.996 19.448l.726-.51.702.51-.218-.906.564-.574h-.718l-.331-.739-.282.74h-.843l.645.573-.245.906zM9.722 18.939l-.726.509.245-.906-.645-.574h.843l.282-.739.331.74h.718l-.564.573.218.906-.702-.51zM12.996 19.448l.726-.51.702.51-.218-.906.564-.574h-.718l-.331-.739-.283.74h-.842l.645.573-.245.906zM17.722 18.939l-.726.509.245-.906-.645-.574h.843l.282-.739.331.74h.718l-.564.573.218.906-.702-.51zM20.996 11.448l.726-.51.702.51-.218-.906.564-.574h-.718l-.331-.739-.282.74h-.843l.645.573-.245.906zM21.722 14.939l-.726.509.245-.906-.645-.574h.843l.282-.739.331.74h.718l-.564.573.218.906-.702-.51zM20.996 19.448l.726-.51.702.51-.218-.906.564-.574h-.718l-.331-.739-.282.74h-.843l.645.573-.245.906zM7.722 12.939l-.726.509.245-.906-.645-.574h.843l.282-.739.331.74h.718l-.564.573.218.906-.702-.51zM10.996 13.448l.726-.51.702.51-.218-.906.564-.574h-.718l-.331-.739-.283.74h-.842l.645.573-.245.906zM15.722 12.939l-.726.509.245-.906-.645-.574h.842l.283-.739.331.74h.718l-.564.573.218.906-.702-.51zM6.996 17.448l.726-.51.702.51-.218-.906.564-.574h-.718l-.331-.739-.282.74h-.843l.645.573-.245.906zM11.722 16.939l-.726.509.245-.906-.645-.574h.842l.283-.739.331.74h.718l-.564.573.218.906-.702-.51zM14.996 17.448l.726-.51.702.51-.218-.906.564-.574h-.718l-.331-.739-.283.74h-.842l.645.573-.245.906zM19.722 12.939l-.726.509.245-.906-.645-.574h.843l.282-.739.331.74h.718l-.564.573.218.906-.702-.51zM18.996 17.448l.726-.51.702.51-.218-.906.564-.574h-.718l-.331-.739-.282.74h-.843l.645.573-.245.906z" fill="#F7FCFF"></path></svg>