<svg xmlns:xlink="http://www.w3.org/1999/xlink"   viewBox="0 0 24 24" fill="#343538" xmlns="http://www.w3.org/2000/svg" class="css-ihks7k" width="1"  height="1" ><path fill-rule="evenodd" clip-rule="evenodd" d="M8.475 19.647c7.17 0 11.092-6.02 11.092-11.241 0-.171 0-.341-.012-.51A7.992 7.992 0 0021.5 5.85a7.7 7.7 0 01-2.239.622 3.955 3.955 0 001.714-2.185 7.749 7.749 0 01-2.476.958 3.864 3.864 0 00-4.683-.777c-1.555.844-2.358 2.64-1.96 4.38a11.018 11.018 0 01-8.034-4.127C2.788 6.526 3.316 8.836 5.03 9.995A3.83 3.83 0 013.26 9.5v.05c0 1.881 1.309 3.501 3.127 3.873a3.84 3.84 0 01-1.76.068 3.91 3.91 0 003.642 2.744A7.756 7.756 0 012.5 17.872a10.93 10.93 0 005.975 1.772" fill="#343538"></path></svg>