<svg xmlns:xlink="http://www.w3.org/1999/xlink" width="19" height="19" viewBox="0 0 24 24" fill="#0AAD0A" xmlns="http://www.w3.org/2000/svg" size="19" color="systemSuccessRegular"><path fill-rule="evenodd" clip-rule="evenodd" d="M13.06 3.94l7 7 .02.02c.022.022.043.045.063.068l-.082-.089a1.513 1.513 0 01.274.377 1.494 1.494 0 01-.071 1.493 1.28 1.28 0 01-.121.163 1.57 1.57 0 01-.062.068l-.02.02-7 7a1.5 1.5 0 01-2.122 0l-.103-.113a1.5 1.5 0 01.103-2.008l4.44-4.439H5A1.5 1.5 0 013.5 12l.007-.145A1.5 1.5 0 015 10.5h10.379l-4.44-4.44a1.5 1.5 0 012.122-2.12z" fill="#0AAD0A"></path></svg>